<?xml version="1.0" encoding="UTF-8" standalone="no"?>
<svg
   width="1100"
   height="1100"
   viewBox="0 0 1100 1100"
   fill="currentColor"
   version="1.1"
   id="svg1"
   sodipodi:docname="telegram-star.svg"
   inkscape:version="1.3.2 (091e20e, 2023-11-25, custom)"
   xmlns:inkscape="http://www.inkscape.org/namespaces/inkscape"
   xmlns:sodipodi="http://sodipodi.sourceforge.net/DTD/sodipodi-0.dtd"
   xmlns="http://www.w3.org/2000/svg"
   xmlns:svg="http://www.w3.org/2000/svg">
  <defs
     id="defs1" />
  <sodipodi:namedview
     id="namedview1"
     pagecolor="#ffffff"
     bordercolor="#000000"
     borderopacity="0.25"
     inkscape:showpageshadow="2"
     inkscape:pageopacity="0.0"
     inkscape:pagecheckerboard="0"
     inkscape:deskcolor="#d1d1d1"
     inkscape:zoom="0.71545455"
     inkscape:cx="550"
     inkscape:cy="549.30114"
     inkscape:window-width="1751"
     inkscape:window-height="1030"
     inkscape:window-x="96"
     inkscape:window-y="0"
     inkscape:window-maximized="0"
     inkscape:current-layer="svg1" />
  <path
     d="m 535.12181,209.6735 c 4.191,-12.898 22.439,-12.898 26.63,0 l 72.657,223.602 c 1.875,5.768 7.25,9.674 13.315,9.674 h 235.123 c 13.562,0 19.201,17.355 8.229,25.326 l -190.217,138.192 c -4.907,3.565 -6.961,9.884 -5.086,15.653 l 72.656,223.599 c 4.192,12.899 -10.571,23.625 -21.543,15.653 l -190.22,-138.194 c -4.907,-3.564 -11.551,-3.564 -16.458,0 l -190.22,138.194 c -10.972,7.972 -25.735,-2.754 -21.544,-15.653 l 60.65,-186.646 c 1.209,-3.721 3.92,-6.767 7.477,-8.398 l 182.288,-83.629 9.44,-4.037 c 15.362,-6.571 8.377,-29.678 -8.052,-26.639 l -1.388,0.257 -199.821,51.236 c -4.04,1.036 -8.332,0.217 -11.706,-2.235 l -161.534,-117.353 c -10.972,-7.971 -5.333,-25.326 8.229,-25.326 h 235.123 c 6.065,0 11.44,-3.906 13.315,-9.674 z"
     fill="currentColor"
     id="path1" />
</svg>
